<?xml version="1.0" encoding="utf-8"?>
<!-- Generator: Adobe Illustrator 17.0.0, SVG Export Plug-In . SVG Version: 6.00 Build 0)  -->
<!DOCTYPE svg PUBLIC "-//W3C//DTD SVG 1.1//EN" "http://www.w3.org/Graphics/SVG/1.1/DTD/svg11.dtd">
<svg version="1.1" id="Layer_1" xmlns="http://www.w3.org/2000/svg" xmlns:xlink="http://www.w3.org/1999/xlink" x="0px" y="0px"
	 width="367.71px" height="46.52px" viewBox="0 0 367.71 46.52" enable-background="new 0 0 367.71 46.52" xml:space="preserve">
<g>
	<g>
		<path fill="#FFFFFF" d="M56.323,9.339l1.705-6.463h25.026l-2.487,6.463c-1.97-0.18-3.452-0.269-4.455-0.269h-3.469v28.273h-6.786
			c0.288-4.306,0.433-6.702,0.433-7.183V9.07h-4.36C59.99,9.07,58.124,9.159,56.323,9.339z"/>
		<path fill="#FFFFFF" d="M83.692,37.289c0-0.483,0.03-1.222,0.082-2.223c0.054-0.997,0.082-1.755,0.082-2.273
			c0-17.707,0-27.698,0-29.973h6.463c0,0.483,0,1.222,0,2.219c0,0.999,0,1.74,0,2.223v8.052c1.77-0.86,3.4-1.291,4.895-1.291
			c2.583,0,4.659,0.836,6.223,2.507c1.562,1.673,2.345,3.837,2.345,6.489c-0.019,1.447-0.019,3.601,0,6.463c0,2.862,0,4.997,0,6.412
			l0.18,1.396h-6.695c0.106-2.1,0.16-3.424,0.16-3.976v-9.243c0-2.819-1.228-4.23-3.681-4.23c-1.075,0-2.217,0.394-3.428,1.187
			c0,8.914,0,14.335,0,16.262h-6.626V37.289z"/>
		<path fill="#FFFFFF" d="M115.657,20.386c0.793-0.617,1.757-0.923,2.895-0.923c2.067,0,3.72,1.077,4.962,3.231h-9.928
			C114.483,21.532,115.172,20.765,115.657,20.386z M128.426,18.825c-0.93-1.554-2.292-2.804-4.084-3.755
			c-1.79-0.949-3.619-1.424-5.48-1.424c-3.413,0-6.273,1.207-8.583,3.618c-2.31,2.412-3.465,5.341-3.465,8.786
			c0,3.343,1.155,6.169,3.465,8.479c2.308,2.308,5.137,3.46,8.479,3.46c2.342,0,4.427-0.501,6.255-1.497
			c1.551-0.858,3.17-2.253,4.86-4.176l-4.448-3.92c-2.377,2.373-4.67,3.56-6.873,3.56c-2.828,0-4.62-1.634-5.378-4.903h16.959
			C130.131,23.467,129.562,20.724,128.426,18.825z"/>
		<path fill="#FFFFFF" d="M139.639,37.289c0.622-2.617,1.07-5.495,1.348-8.63c0.483-5.753,1.241-14.385,2.273-25.893h3.515
			l9.458,15.443l0.722,1.599c1.207-2.338,2.81-5.2,4.81-8.574c1.655-2.823,3.311-5.645,4.968-8.47h3.712
			c0.1,1.894,0.308,4.739,0.617,8.528l1.807,17.571c0.31,3.033,0.747,5.84,1.306,8.424h-7.018c-0.13-3.378-0.308-6.394-0.537-9.048
			c-0.204-1.963-0.423-3.946-0.661-5.946c-0.238-2.344-0.323-4.325-0.253-5.944c-0.21,0.516-0.539,1.239-0.992,2.171l-7.755,13.183
			c-1.616-2.62-3.231-5.257-4.845-7.911c-2.579-4.344-3.902-6.839-3.97-7.497c0,0.691-0.035,1.707-0.104,3.051l-1.129,12.303
			c-0.056,0.722-0.069,1.656-0.033,2.793c0.069,1.586,0.104,2.535,0.104,2.843h-7.343V37.289z"/>
		<path fill="#FFFFFF" d="M192.457,30.117c-1.122,1.192-2.542,1.788-4.269,1.788c-1.658,0-3.081-0.579-4.273-1.736
			c-1.19-1.155-1.785-2.561-1.785-4.217c0-1.692,0.579-3.124,1.734-4.297c1.157-1.172,2.579-1.76,4.269-1.76
			c1.658,0,3.072,0.563,4.247,1.684c1.172,1.122,1.757,2.507,1.757,4.165C194.139,27.469,193.58,28.925,192.457,30.117z
			 M179.534,17.319c-2.358,2.41-3.543,5.237-3.543,8.476c0,3.378,1.183,6.264,3.543,8.658c2.355,2.394,5.228,3.592,8.602,3.592
			c3.345,0,6.203-1.189,8.578-3.567c2.379-2.375,3.566-5.237,3.566-8.58c0-3.443-1.196-6.338-3.592-8.682
			c-2.394-2.342-5.313-3.515-8.76-3.515C184.691,13.701,181.888,14.908,179.534,17.319z"/>
		<path fill="#FFFFFF" d="M200.212,20.11v-5.926c0.687,0,1.495,0,2.422,0v-8.13h6.572c0,1.057-0.072,3.768-0.219,8.13
			c1.14,0.104,2.862,0.104,5.172,0v6.034c-1.137-0.024-2.862-0.059-5.172-0.108v8.203c0,2.249,0.539,3.374,1.604,3.374
			c0.657,0,1.469-0.132,2.435-0.396l1.66,4.94c-2.448,1.066-4.292,1.597-5.53,1.597c-4.206,0-6.307-2.884-6.307-8.652V20.11
			C202.849,20.11,200.212,20.11,200.212,20.11z"/>
		<path fill="#FFFFFF" d="M216.713,37.289c0.357-3.135,0.537-6.357,0.537-9.66V10.728c0-2.583-0.058-5.218-0.171-7.905h6.719
			c-0.126,2.033-0.193,3.809-0.193,5.322V33.62c0,1.38,0,2.602,0,3.67H216.713z"/>
		<path fill="#FFFFFF" d="M235.445,20.386c0.793-0.617,1.757-0.923,2.895-0.923c2.067,0,3.722,1.077,4.964,3.231h-9.926
			C234.272,21.532,234.964,20.765,235.445,20.386z M248.215,18.825c-0.932-1.554-2.292-2.804-4.084-3.755
			c-1.794-0.949-3.621-1.424-5.482-1.424c-3.415,0-6.275,1.207-8.583,3.618c-2.308,2.412-3.463,5.341-3.463,8.786
			c0,3.343,1.155,6.169,3.463,8.479c2.308,2.308,5.137,3.46,8.481,3.46c2.342,0,4.425-0.501,6.253-1.497
			c1.551-0.858,3.17-2.253,4.86-4.176l-4.446-3.92c-2.379,2.373-4.672,3.56-6.875,3.56c-2.828,0-4.618-1.634-5.378-4.903h16.96
			C249.921,23.467,249.353,20.724,248.215,18.825z"/>
		<path fill="#FFFFFF" d="M249.63,15.588l5.762-2.802c0.448,0.897,2.834,5.703,7.159,14.416l3.833-9.081
			c0.377-0.858,0.86-2.167,1.447-3.924h7.131c-2.171,4.929-5.395,12.338-9.67,22.225c-1.376,3.207-2.516,5.397-3.411,6.568
			c-1.688,2.238-3.738,3.358-6.152,3.358c-1.378,0-3.328-0.57-5.84-1.707l2.065-5.582c1.586,0.763,2.756,1.15,3.514,1.15
			c0.864,0,1.656-0.708,2.383-2.121c0.481-1.137,0.964-2.258,1.447-3.361L249.63,15.588z"/>
		<path fill="#FFFFFF" d="M284.325,2.822h24.138l-2.422,6.355c-5.499-0.182-8.093-0.269-7.785-0.269h-7.577v7.811l6.8,0.052h3.813
			l4.327-0.214l-1.903,6.19H290.68v9.107c0,0.656,0.033,1.578,0.108,2.771c0.071,1.189,0.106,2.076,0.106,2.663h-6.568
			c0-1.653,0-3.601,0-5.839V2.822z"/>
		<path fill="#FFFFFF" d="M323.857,30.117c-1.124,1.192-2.542,1.788-4.269,1.788c-1.658,0-3.081-0.579-4.271-1.736
			c-1.189-1.155-1.786-2.561-1.786-4.217c0-1.692,0.579-3.124,1.736-4.297c1.157-1.172,2.578-1.76,4.269-1.76
			c1.655,0,3.072,0.563,4.245,1.684c1.17,1.122,1.759,2.507,1.759,4.165C325.54,27.469,324.979,28.925,323.857,30.117z
			 M310.931,17.319c-2.358,2.41-3.54,5.237-3.54,8.476c0,3.378,1.179,6.264,3.54,8.658c2.358,2.394,5.231,3.592,8.606,3.592
			c3.343,0,6.201-1.189,8.576-3.567c2.379-2.375,3.567-5.237,3.567-8.58c0-3.443-1.196-6.338-3.593-8.682
			c-2.394-2.342-5.313-3.515-8.758-3.515C316.091,13.701,313.289,14.908,310.931,17.319z"/>
		<path fill="#FFFFFF" d="M350.068,30.117c-1.118,1.192-2.54,1.788-4.267,1.788c-1.658,0-3.079-0.579-4.273-1.736
			c-1.19-1.155-1.785-2.561-1.785-4.217c0-1.692,0.578-3.124,1.734-4.297c1.155-1.172,2.579-1.76,4.269-1.76
			c1.656,0,3.072,0.563,4.241,1.684c1.174,1.122,1.764,2.507,1.764,4.165C351.754,27.469,351.191,28.925,350.068,30.117z
			 M337.145,17.319c-2.362,2.41-3.541,5.237-3.541,8.476c0,3.378,1.177,6.264,3.541,8.658c2.358,2.394,5.229,3.592,8.604,3.592
			c3.343,0,6.203-1.189,8.578-3.567c2.377-2.375,3.564-5.237,3.564-8.58c0-3.443-1.194-6.338-3.59-8.682
			c-2.396-2.342-5.315-3.515-8.76-3.515C342.303,13.701,339.503,14.908,337.145,17.319z"/>
		<path fill="#FFFFFF" d="M360.623,37.289c0.36-3.135,0.539-6.357,0.539-9.66V10.728c0-2.583-0.059-5.218-0.173-7.905h6.723
			c-0.13,2.033-0.193,3.809-0.193,5.322V33.62c0,1.38,0,2.602,0,3.67H360.623z"/>
	</g>
</g>
<g>
	<g>
		<path fill="#FFFFFF" d="M48.667,46.521H0V-0.001h48.667V46.521z M0.945,45.575h46.777V0.945H0.945V45.575z"/>
	</g>
	<g>
		<g>
			<path fill="#FFFFFF" d="M26.018,46.515H0.16V33.502h0.388c13.3,0,22.883,8.091,26.092,12.37l-0.622,0.466
				c0-0.001,0-0.001-0.001-0.001V46.515z M0.937,45.738h24.61C22.057,41.5,13.131,34.43,0.937,34.281V45.738z"/>
		</g>
		<path fill="#FFFFFF" d="M26.012,46.338c-3.13-4.173-12.498-12.066-25.546-12.066v-0.845c13.383,0,23.004,8.114,26.222,12.404
			L26.012,46.338z"/>
		<g>
			<path fill="#FFFFFF" d="M42.668,12.845c0.033,0.069,0.055,0.112,0.085,0.173C42.877,13.012,42.997,13,43.125,13
				c0.346,0,0.671,0.032,0.986,0.078c2.493-5.319,0.192-12.415,0.167-12.488l-0.801,0.267c0.638,1.913,1.786,7.523-0.027,11.668
				c-0.007-0.015-0.014-0.03-0.021-0.045c-1.153-2.401-4.197-8.698-12.39-11.343c0.016,0.297,0.016,0.595-0.007,0.891
				C38.689,4.611,41.57,10.559,42.668,12.845z"/>
		</g>
		<path fill="#FFFFFF" d="M36.223,20.941c-0.149-0.327-5.057-6.147-7.993-9.614l-0.241-0.242c-0.198,0.198-0.413,0.381-0.645,0.547
			l0.266,0.266c3.022,3.57,7.609,9.025,7.846,9.394c0.217,0.47,0.232,0.948,0.039,1.279c-0.127,0.22-0.338,0.347-0.641,0.374
			c-0.654,0.108-1.548,0.102-4.208,0.09c-1.213-0.007-2.793-0.017-4.921-0.012c-0.625,0.054-1.135-0.605-1.205-1.242
			c-0.038-0.348,0.011-1.175,1.298-1.331c0.232-0.028,0.397-0.238,0.369-0.47c-0.028-0.232-0.24-0.401-0.47-0.369
			c-1.665,0.201-2.137,1.344-2.036,2.262c0.116,1.052,1.01,2.107,2.086,1.992c2.087,0,3.663,0.008,4.875,0.014
			c0.757,0.004,1.374,0.007,1.885,0.007c1.319,0,1.933-0.021,2.431-0.104c0.549-0.047,0.999-0.326,1.267-0.788
			C36.556,22.427,36.554,21.658,36.223,20.941z"/>
		<g>
			<path fill="#FFFFFF" d="M24.604,12.557c0.452,0.056,0.872,0.156,1.262,0.295c7.508-3.845,5.574-12.144,5.553-12.23l-0.821,0.201
				c0.019,0.079,1.804,7.726-5.114,11.277c0.313-7.988-6.319-11.928-7.498-12.048l-0.087,0.84
				C18.515,0.98,25.196,4.658,24.604,12.557z"/>
		</g>
		<g>
			<path fill="#FFFFFF" d="M3.017,21.281c-0.018,0-0.036-0.001-0.053-0.004c-0.194-0.027-0.361-0.05-2.786-3.46
				c-0.047-0.066-0.072-0.145-0.072-0.225V0.723c0-0.213,0.172-0.387,0.386-0.388c0,0,6.101-0.046,9.27-0.046
				c1.813,0,1.875,0.014,1.941,0.028c0.149,0.034,0.265,0.151,0.296,0.301c0.031,0.15-0.029,0.304-0.153,0.393
				c-0.101,0.072-9.992,7.793-8.442,19.832c0.016,0.12-0.026,0.24-0.112,0.326C3.217,21.241,3.119,21.281,3.017,21.281z
				 M0.882,17.468c0.564,0.792,1.169,1.619,1.627,2.222C1.906,10.633,7.533,3.695,10.537,1.066
				c-0.212-0.001-0.468-0.001-0.777-0.001c-2.689,0-7.491,0.034-8.879,0.044V17.468z"/>
		</g>
		<path fill="#FFFFFF" d="M3.129,21.538c-0.119,0-0.236-0.051-0.318-0.145c-0.589-0.674-2.666-3.583-2.754-3.707l0.688-0.49
			c0.015,0.02,1.028,1.439,1.84,2.529C1.98,9.199,8.59,2.697,11.561,0.328l0.122-0.098l0.534,0.654l-0.13,0.105
			c-2.994,2.388-9.819,9.124-8.539,20.078c0.021,0.184-0.079,0.36-0.249,0.435C3.245,21.526,3.187,21.538,3.129,21.538z"/>
		<polygon fill="#FFFFFF" points="0.255,17.704 0.228,0.431 11.729,0.431 11.729,0.961 0.76,0.961 0.785,17.703 		"/>
		<path fill="#FFFFFF" d="M29.264,46.507c-0.135,0-0.266-0.064-0.348-0.183c-0.133-0.192-0.084-0.456,0.108-0.588
			c2.275-1.569,2.656-3.562,2.576-4.959c-0.132-2.285-1.533-4.227-2.784-4.892c-0.083-0.02-0.371,0.073-0.61,0.142
			c-1.292,0.368-3.981,1.135-8.005-1.664c-4.004-2.787-3.127-8.102-3.088-8.327l0.189-1.08l0.585,0.929
			c0.135,0.214,3.337,5.173,9.518,4.264c0.486-2.558,0.559-2.869,0.958-4.56l0.407-1.739c0.053-0.226,0.281-0.364,0.507-0.316
			c0.227,0.053,0.369,0.28,0.316,0.507l-0.407,1.741c-0.409,1.738-0.472,2.005-1.005,4.815l-0.054,0.287l-0.288,0.05
			c-5.214,0.915-8.604-2.125-9.973-3.705c-0.036,1.604,0.267,4.664,2.82,6.441c3.697,2.572,6.036,1.903,7.292,1.544
			c0.542-0.154,0.934-0.268,1.264-0.06c1.466,0.779,3.055,2.954,3.206,5.575c0.131,2.279-0.913,4.305-2.939,5.703
			C29.43,46.483,29.347,46.507,29.264,46.507z"/>
		<g>
			<path fill="#FFFFFF" d="M4.337,28.029c-2.001,0-3.629-1.628-3.629-3.628c0-1.999,1.628-3.626,3.629-3.626
				c1.999,0,3.626,1.626,3.626,3.626C7.963,26.401,6.336,28.029,4.337,28.029z M4.337,21.621c-1.535,0-2.784,1.247-2.784,2.781
				c0,1.535,1.249,2.783,2.784,2.783c1.533,0,2.781-1.248,2.781-2.783C7.118,22.868,5.87,21.621,4.337,21.621z"/>
		</g>
		<g>
			<path fill="#FFFFFF" d="M25.269,19.497c-2,0-3.628-1.626-3.628-3.626c0-2,1.627-3.628,3.628-3.628
				c1.998,0,3.625,1.627,3.625,3.628C28.894,17.871,27.267,19.497,25.269,19.497z M25.269,13.089c-1.535,0-2.783,1.248-2.783,2.783
				c0,1.534,1.248,2.781,2.783,2.781c1.533,0,2.78-1.247,2.78-2.781C28.049,14.337,26.802,13.089,25.269,13.089z"/>
		</g>
		<g>
			<path fill="#FFFFFF" d="M43.544,19.998c-1.999,0-3.626-1.627-3.626-3.628s1.626-3.628,3.626-3.628c2,0,3.628,1.627,3.628,3.628
				S45.544,19.998,43.544,19.998z M43.544,13.588c-1.534,0-2.781,1.248-2.781,2.783s1.247,2.783,2.781,2.783
				c1.535,0,2.783-1.248,2.783-2.783S45.078,13.588,43.544,13.588z"/>
		</g>
		<circle fill="#FFFFFF" cx="13.657" cy="15.164" r="3.204"/>
		<path fill="#FFFFFF" d="M15.115,19.531c-3.049,0-5.53-2.165-5.53-4.826c0-2.661,2.481-4.825,5.53-4.825
			c3.048,0,5.528,2.164,5.528,4.825C20.643,17.366,18.163,19.531,15.115,19.531z M15.115,10.725c-2.583,0-4.685,1.786-4.685,3.98
			c0,2.195,2.102,3.981,4.685,3.981c2.583,0,4.683-1.786,4.683-3.981C19.798,12.51,17.697,10.725,15.115,10.725z"/>
		<path fill="#FFFFFF" d="M20.441,7.638c-0.108,0-0.216-0.041-0.299-0.124c-0.937-0.937-4.505-2.019-7.284-0.907
			c-0.217,0.084-0.463-0.019-0.549-0.236c-0.086-0.217,0.019-0.462,0.236-0.549c3.049-1.218,6.951-0.15,8.195,1.094
			c0.165,0.165,0.165,0.432,0,0.597C20.657,7.597,20.549,7.638,20.441,7.638z"/>
	</g>
	<path fill="#FFFFFF" d="M48.713,46.471H0.145V0.049h48.568V46.471z M0.992,45.624h46.874V0.896H0.992V45.624z"/>
</g>
</svg>
